<?xml version="1.0" standalone="no"?>
<!DOCTYPE svg PUBLIC "-//W3C//DTD SVG 20010904//EN"
 "http://www.w3.org/TR/2001/REC-SVG-20010904/DTD/svg10.dtd">
<svg version="1.0" xmlns="http://www.w3.org/2000/svg"
 width="70.000000pt" height="70.000000pt" viewBox="0 0 70.000000 70.000000"
 preserveAspectRatio="xMidYMid meet">
<metadata>
Created by potrace 1.14, written by Peter Selinger 2001-2017
</metadata>
<g transform="translate(0.000000,70.000000) scale(0.100000,-0.100000)"
fill="#000000" stroke="none">
<path d="M0 350 l0 -350 46 0 c43 0 46 2 60 37 8 21 19 45 25 53 5 8 12 23 15
32 4 10 10 18 15 18 4 0 13 18 19 40 6 22 15 38 20 35 6 -4 10 -1 10 4 0 6 -4
11 -8 11 -31 0 -69 163 -41 180 7 5 16 5 19 1 3 -5 15 -11 28 -15 29 -10 41
19 18 42 -13 14 -21 14 -46 5 -30 -11 -30 -11 -30 26 0 20 7 47 16 60 14 19
22 22 53 17 20 -3 60 -9 89 -12 62 -8 67 -15 75 -102 5 -62 -2 -93 -35 -160
-15 -30 -68 -62 -104 -62 -28 -1 -28 -1 10 -20 46 -23 67 -19 96 17 16 21 22
23 35 13 8 -7 15 -18 15 -26 0 -7 6 -19 13 -26 29 -29 45 -65 52 -115 l7 -53
114 0 114 0 0 350 0 350 -350 0 -350 0 0 -350z"/>
<path d="M282 448 c-21 -21 -14 -48 13 -48 26 0 75 19 75 30 0 14 -26 30 -50
30 -14 0 -31 -5 -38 -12z"/>
<path d="M263 341 c-37 -18 -42 -31 -12 -31 11 0 29 -5 40 -11 15 -7 24 -7 35
2 19 15 17 21 -9 40 -20 15 -25 15 -54 0z"/>
<path d="M193 303 c9 -9 20 -13 24 -9 4 4 1 11 -7 16 -25 16 -35 11 -17 -7z"/>
<path d="M250 135 c-7 -9 -14 -32 -15 -53 -1 -20 -5 -47 -9 -60 -7 -20 -4 -22
30 -22 36 0 37 0 31 35 -3 19 -1 37 4 40 15 10 10 41 -10 59 -16 15 -19 15
-31 1z"/>
</g>
</svg>
